<svg width="11" height="9" viewBox="0 0 11 9" fill="none" xmlns="http://www.w3.org/2000/svg">
<path d="M8.53122 6.2105C8.37203 6.48623 7.91766 6.71834 7.0611 6.6607C6.24073 6.60549 5.20818 6.28453 4.17568 5.68842C3.14319 5.09231 2.34895 4.35857 1.89096 3.67571C1.41276 2.96273 1.38659 2.45318 1.54578 2.17746C1.70497 1.90173 2.15934 1.66962 3.0159 1.72726C3.83627 1.78247 4.86882 2.10342 5.90132 2.69953C6.93381 3.29565 7.72805 4.02939 8.18604 4.71224C8.66424 5.42522 8.69041 5.93477 8.53122 6.2105Z" stroke="#282828"/>
<path d="M1.54588 6.21057C1.38669 5.93484 1.41286 5.42529 1.89106 4.71231C2.34905 4.02945 3.14329 3.29571 4.17578 2.6996C5.20828 2.10349 6.24083 1.78253 7.0612 1.72733C7.91776 1.66968 8.37213 1.9018 8.53132 2.17752C8.69051 2.45325 8.66434 2.9628 8.18614 3.67578C7.72815 4.35864 6.93391 5.09238 5.90142 5.68849C4.86892 6.2846 3.83637 6.60556 3.016 6.66077C2.15944 6.71841 1.70507 6.48629 1.54588 6.21057Z" stroke="#282828"/>
</svg>
