<svg width="30" height="31" viewBox="0 0 30 31" fill="none" xmlns="http://www.w3.org/2000/svg">
<g clip-path="url(#clip0_205_116)">
<path d="M21.0906 10.6383C20.9605 10.3012 20.7611 9.99506 20.5055 9.73967C20.2498 9.48428 19.9435 9.28527 19.6062 9.15547C19.1419 8.98348 18.6514 8.89257 18.1562 8.88672C17.3328 8.84922 17.0859 8.83984 15 8.83984C12.9141 8.83984 12.6672 8.84922 11.8437 8.88672C11.3481 8.89239 10.857 8.9833 10.3922 9.15547C10.0551 9.28563 9.74897 9.48496 9.49358 9.74062C9.23819 9.99628 9.03918 10.3026 8.90938 10.6398C8.73738 11.1042 8.64648 11.5947 8.64063 12.0898C8.60313 12.9133 8.59375 13.1602 8.59375 15.2461C8.59375 17.332 8.60313 17.5789 8.64063 18.4023C8.6463 18.898 8.73721 19.389 8.90938 19.8539C9.03954 20.191 9.23887 20.4971 9.49452 20.7525C9.75018 21.0079 10.0565 21.2069 10.3937 21.3367C10.8581 21.5087 11.3486 21.5996 11.8437 21.6055C12.6672 21.643 12.9141 21.6523 15 21.6523C17.0859 21.6523 17.3328 21.643 18.1562 21.6055C18.6519 21.5998 19.143 21.5089 19.6078 21.3367C19.9449 21.2066 20.251 21.0072 20.5064 20.7516C20.7618 20.4959 20.9608 20.1896 21.0906 19.8523C21.2626 19.388 21.3535 18.8975 21.3594 18.4023C21.3969 17.5789 21.4062 17.332 21.4062 15.2461C21.4062 13.1602 21.3969 12.9133 21.3594 12.0898C21.3537 11.5942 21.2628 11.1031 21.0906 10.6383ZM15 19.2586C14.2064 19.2586 13.4306 19.0233 12.7708 18.5824C12.1109 18.1415 11.5966 17.5148 11.2929 16.7816C10.9892 16.0484 10.9098 15.2416 11.0646 14.4633C11.2194 13.6849 11.6016 12.97 12.1627 12.4088C12.7239 11.8477 13.4389 11.4655 14.2172 11.3107C14.9955 11.1559 15.8023 11.2353 16.5355 11.539C17.2687 11.8427 17.8954 12.357 18.3363 13.0169C18.7772 13.6767 19.0125 14.4525 19.0125 15.2461C19.0125 16.3103 18.5898 17.3309 17.8373 18.0834C17.0848 18.8358 16.0642 19.2586 15 19.2586ZM19.1703 12.0133C18.9849 12.0133 18.8036 11.9583 18.6495 11.8553C18.4953 11.7523 18.3751 11.6059 18.3042 11.4345C18.2332 11.2632 18.2147 11.0747 18.2508 10.8929C18.287 10.711 18.3763 10.544 18.5074 10.4129C18.6385 10.2818 18.8056 10.1925 18.9874 10.1563C19.1693 10.1201 19.3578 10.1387 19.5291 10.2096C19.7004 10.2806 19.8468 10.4008 19.9498 10.5549C20.0528 10.7091 20.1078 10.8904 20.1078 11.0758C20.1078 11.3244 20.009 11.5629 19.8332 11.7387C19.6574 11.9145 19.419 12.0133 19.1703 12.0133Z" fill="#282828"/>
<path d="M14.9992 17.85C16.4377 17.85 17.6039 16.6838 17.6039 15.2453C17.6039 13.8068 16.4377 12.6406 14.9992 12.6406C13.5607 12.6406 12.3945 13.8068 12.3945 15.2453C12.3945 16.6838 13.5607 17.85 14.9992 17.85Z" fill="#282828"/>
<path d="M15 0.246094C12.0333 0.246094 9.13319 1.12583 6.66645 2.77405C4.19972 4.42227 2.27713 6.76495 1.14181 9.50584C0.00649923 12.2467 -0.290551 15.2627 0.288228 18.1724C0.867006 21.0822 2.29562 23.7549 4.3934 25.8527C6.49119 27.9505 9.16394 29.3791 12.0737 29.9579C14.9834 30.5366 17.9994 30.2396 20.7403 29.1043C23.4811 27.969 25.8238 26.0464 27.472 23.5796C29.1203 21.1129 30 18.2128 30 15.2461C30 11.2678 28.4197 7.45254 25.6066 4.63949C22.7936 1.82645 18.9783 0.246094 15 0.246094ZM22.7656 18.468C22.7522 19.1158 22.6291 19.7566 22.4016 20.3633C22.2009 20.8822 21.8941 21.3534 21.5007 21.7468C21.1073 22.1401 20.6361 22.447 20.1172 22.6477C19.5105 22.8752 18.8697 22.9983 18.2219 23.0117C17.3875 23.0492 17.1219 23.0586 15 23.0586C12.8781 23.0586 12.6125 23.0492 11.7781 23.0117C11.1303 22.9983 10.4895 22.8752 9.88282 22.6477C9.36395 22.447 8.89272 22.1401 8.49934 21.7468C8.10596 21.3534 7.79911 20.8822 7.59844 20.3633C7.37088 19.7566 7.24779 19.1158 7.23438 18.468C7.19688 17.6336 7.18751 17.368 7.18751 15.2461C7.18751 13.1242 7.19688 12.8586 7.23438 12.0242C7.24779 11.3764 7.37088 10.7356 7.59844 10.1289C7.79911 9.61003 8.10596 9.13881 8.49934 8.74543C8.89272 8.35205 9.36395 8.04519 9.88282 7.84453C10.4895 7.61697 11.1303 7.49387 11.7781 7.48047C12.6125 7.44297 12.8781 7.43359 15 7.43359C17.1219 7.43359 17.3875 7.44297 18.2219 7.48047C18.8697 7.49387 19.5105 7.61697 20.1172 7.84453C20.6361 8.04519 21.1073 8.35205 21.5007 8.74543C21.8941 9.13881 22.2009 9.61003 22.4016 10.1289C22.6291 10.7356 22.7522 11.3764 22.7656 12.0242C22.8031 12.8586 22.8125 13.1242 22.8125 15.2461C22.8125 17.368 22.8031 17.6336 22.7656 18.468Z" fill="#282828"/>
</g>
<defs>
<clipPath id="clip0_205_116">
<rect width="30" height="30" fill="white" transform="translate(0 0.246094)"/>
</clipPath>
</defs>
</svg>
