<svg width="30" height="31" viewBox="0 0 30 31" fill="none" xmlns="http://www.w3.org/2000/svg">
<g clip-path="url(#clip0_205_122)">
<path d="M15 0.246094C6.71625 0.246094 0 6.96234 0 15.2461C0 23.5298 6.71625 30.2461 15 30.2461C23.2838 30.2461 30 23.5298 30 15.2461C30 6.96234 23.2838 0.246094 15 0.246094ZM22.3675 10.5223L19.905 22.1223C19.7237 22.9448 19.2337 23.1448 18.55 22.7573L14.8 19.9948L12.9925 21.7373C12.8175 21.9623 12.5462 22.1061 12.2425 22.1061C12.24 22.1061 12.2387 22.1061 12.2362 22.1061L12.5025 18.2886L19.4525 12.0111C19.7525 11.7448 19.385 11.5936 18.9862 11.8598L10.4 17.2673L6.7 16.1123C5.9 15.8586 5.8775 15.3123 6.86875 14.9198L21.3263 9.34734C21.9988 9.10234 22.5837 9.50734 22.3662 10.5236L22.3675 10.5223Z" fill="#282828"/>
</g>
<defs>
<clipPath id="clip0_205_122">
<rect width="30" height="30" fill="white" transform="translate(0 0.246094)"/>
</clipPath>
</defs>
</svg>
