<svg width="30" height="31" viewBox="0 0 30 31" fill="none" xmlns="http://www.w3.org/2000/svg">
<g clip-path="url(#clip0_205_120)">
<path d="M15.0016 0.845703C7.04856 0.845703 0.601562 7.2927 0.601562 15.2457C0.601562 23.1987 7.04856 29.6457 15.0016 29.6457C22.9546 29.6457 29.4016 23.1987 29.4016 15.2457C29.4016 7.2927 22.9546 0.845703 15.0016 0.845703ZM20.5396 17.0922C20.5396 17.0922 21.8131 18.3492 22.1266 18.9327C22.1356 18.9447 22.1401 18.9567 22.1431 18.9627C22.2706 19.1772 22.3006 19.3437 22.2376 19.4682C22.1326 19.6752 21.7726 19.7772 21.6496 19.7862H19.3996C19.2436 19.7862 18.9166 19.7457 18.5206 19.4727C18.2161 19.2597 17.9161 18.9102 17.6236 18.5697C17.1871 18.0627 16.8091 17.6247 16.4281 17.6247C16.3797 17.6246 16.3316 17.6322 16.2856 17.6472C15.9976 17.7402 15.6286 18.1512 15.6286 19.2462C15.6286 19.5882 15.3586 19.7847 15.1681 19.7847H14.1376C13.7866 19.7847 11.9581 19.6617 10.3381 17.9532C8.35506 15.8607 6.57006 11.6637 6.55506 11.6247C6.44256 11.3532 6.67506 11.2077 6.92856 11.2077H9.20106C9.50406 11.2077 9.60306 11.3922 9.67206 11.5557C9.75306 11.7462 10.0501 12.5037 10.5376 13.3557C11.3281 14.7447 11.8126 15.3087 12.2011 15.3087C12.2739 15.3078 12.3455 15.2893 12.4096 15.2547C12.9166 14.9727 12.8221 13.1652 12.7996 12.7902C12.7996 12.7197 12.7981 11.9817 12.5386 11.6277C12.3526 11.3712 12.0361 11.2737 11.8441 11.2377C11.9218 11.1305 12.0242 11.0435 12.1426 10.9842C12.4906 10.8102 13.1176 10.7847 13.7401 10.7847H14.0866C14.7616 10.7937 14.9356 10.8372 15.1801 10.8987C15.6751 11.0172 15.6856 11.3367 15.6421 12.4302C15.6286 12.7407 15.6151 13.0917 15.6151 13.5057C15.6151 13.5957 15.6106 13.6917 15.6106 13.7937C15.5956 14.3502 15.5776 14.9817 15.9706 15.2412C16.0218 15.2733 16.0811 15.2905 16.1416 15.2907C16.2781 15.2907 16.6891 15.2907 17.8021 13.3812C18.1453 12.7666 18.4436 12.1279 18.6946 11.4702C18.7171 11.4312 18.7831 11.3112 18.8611 11.2647C18.9186 11.2354 18.9825 11.2204 19.0471 11.2212H21.7186C22.0096 11.2212 22.2091 11.2647 22.2466 11.3772C22.3126 11.5557 22.2346 12.1002 21.0151 13.7517L20.4706 14.4702C19.3651 15.9192 19.3651 15.9927 20.5396 17.0922Z" fill="#282828"/>
</g>
<defs>
<clipPath id="clip0_205_120">
<rect width="30" height="30" fill="white" transform="translate(0 0.246094)"/>
</clipPath>
</defs>
</svg>
